<svg version="1.0" xmlns="http://www.w3.org/2000/svg" width="878" height="871" viewBox="0 0 878 871"
     preserveAspectRatio="xMidYMid meet">
    <metadata>Created by potrace 1.16, written by Peter Selinger 2001-2019</metadata>
    <g transform="translate(0,871) scale(0.1,-0.1)" fill="#0055a4" stroke="none">
        <rect width="6340" height="7880" stroke="none" fill="#fff" x="1470" y="430"/>
        <path d="M1572 8685c-279-28-478-82-688-185-158-78-275-162-396-284-273-274-418-638-457-1146-15-190-25-4412-12-4990 11-467 20-577 66-784 76-334 201-572 415-787 221-222 508-371 843-439 282-57 120-53 2927-58 1783-2 2640 0 2761 8 434 26 747 116 1014 290 396 259 617 641 690 1193 33 259 36 517 33 3037-4 2302-5 2495-21 2620-50 382-130 624-282 850-208 311-548 535-946 624-285 64-92 60-3089 62-2202 2-2750-1-2858-11zm4532-588c19-26 21-39 19-223-1-118 2-194 8-194 10 0 129 100 221 187 64 60 102 69 137 31 28-30 38-85 20-117-8-13-70-74-139-134-69-60-153-135-188-166l-63-56 3-163 3-164 135 121c127 114 137 121 177 121 46 0 73-25 73-67 0-43-24-69-206-232l-184-165 0-113 0-113 38 23c321 204 660 422 672 433 11 11 19 70 31 236l16 222 32 28c38 34 78 36 115 7 31-24 32-37 12-229-8-74-13-136-11-138 2-2 58 30 124 72 161 101 191 115 224 109 33-6 67-47 67-79 0-54-17-70-177-164-100-59-153-95-143-99 8-3 82-28 165-56l150-50 3-46c4-60-25-99-73-99-18 0-123 29-234 65l-201 66-58-39c-31-21-181-116-332-210-151-94-284-177-295-185-18-14-15-18 59-65 76-49 81-50 110-38 17 8 120 55 229 106 162 76 204 91 229 86 17-3 37-11 45-17 17-15 17-94 0-111-8-7-90-49-183-93-93-43-171-81-174-83-3-2 2-9 10-14 150-94 325-198 334-198 6 0 101 41 211 91 227 104 270 115 309 76 28-29 33-61 14-103-10-22-47-44-175-106-90-44-163-81-163-83 0-1 73-42 161-91 170-92 192-113 181-170-6-32-57-74-89-74-13 0-94 41-179 90-84 50-155 90-157 90-2 0 2-35 9-77 6-43 15-119 19-169 7-88 6-91-19-121-41-49-113-56-136-13-9 16-60 420-60 471 0 9-32 36-77 64-254 158-625 385-629 385-2 0-4-76-4-169l0-170 152-138c237-214 238-216 238-254 0-45-33-79-78-79-30 0-52 15-156 107-66 59-129 113-138 121-17 14-18 6-18-150l0-165 163-146c243-217 227-200 227-244 0-58-22-83-73-83-38 0-50 7-111 61-109 96-186 159-197 159-5 0-9-70-9-171l0-171-29-29c-56-55-140-29-142 44 0 17 0 98 1 179 1 81-1 152-4 157-4 5-65-39-138-100-108-90-136-109-164-109-46 0-63 8-80 42-30 58-17 75 192 253l194 166 0 160 0 161-24-19c-13-10-79-65-147-122-122-103-122-103-168-98-56 6-74 28-67 82 5 44-10 29 253 257l153 133 0 163c0 89-3 162-6 162-3 0-105-62-227-138-122-76-238-148-258-160-72-44-149-13-149 60 0 49 20 71 123 134 50 31 93 58 95 59 1 1-62 35-140 75-231 118-228 115-228 161 0 45 34 89 69 89 11 0 120-49 242-109l224-110 83 51c45 28 79 55 75 59-28 26-690 439-705 439-7 0-107-32-224-70-231-76-241-77-283-24-21 26-28 78-13 101 7 11 73 34 255 88 48 14 87 29 87 33-1 4-64 45-141 92-78 47-147 94-155 105-35 50-8 126 51 141 34 8 51 0 202-97 69-44 128-78 131-75 3 3-2 76-11 162-15 147-15 159 0 186 32 52 126 57 149 7 7-13 21-126 32-252 12-125 24-231 27-236 3-5 56-41 118-79 61-38 213-133 336-210 124-78 229-139 233-136 10 6 10 165 0 180-4 5-68 66-142 134-269 245-250 226-250 268 0 57 22 82 73 82 39-1 51-8 176-120 73-66 137-120 142-120 5 0 9 70 9 156l0 156-37 35c-21 19-112 99-202 176l-163 141 4 48c6 60 30 88 75 88 30 0 55-17 171-116l137-117 5 194c6 238 16 262 104 256 29-1 44-9 60-30zm-2158-736c57-34 83-78 159-263 40-98 138-241 224-328 83-84 183-157 339-249 204-120 350-253 469-427 73-107 99-159 146-284 55-149 71-242 71-420 1-165-12-248-61-405-58-184-200-432-302-528-57-54-105-63-141-27-31 31-24 62 31 136 65 86 91 144 124 264 84 315 29 592-168 837-124 155-326 278-606 369-73 24-142 44-152 44-18 0-19-33-19-1122 0-698-4-1150-10-1193-18-123-40-197-91-302-41-86-62-116-127-181-249-251-676-403-1041-372-327 29-517 157-598 404-22 68-26 100-27 196 0 101 3 125 28 195 95 274 359 514 696 633 146 51 232 67 370 66 147 0 231-19 395-89 58-25 108-45 112-45 3 0 4 672 0 1493-4 1203-3 1498 7 1522 18 43 81 95 114 95 15 0 41-9 58-19zm2855-2833c47-26 75-64 90-120 30-112-47-220-169-235-134-16-246 125-198 251 44 116 171 164 277 104zm-948-641c48-28 92-85 107-138 58-201-143-375-328-283-187 93-170 367 27 441 53 20 142 10 194-20zm-844-685c75-40 94-152 36-212-61-64-145-61-204 5-26 30-31 44-31 88 0 59 16 89 64 118 39 24 91 24 135 1zm-2232-804c26-21 43-65 104-270 33-112 63-210 66-218 6-16 17 20 93 293 27 98 54 185 61 193 15 18 139 20 139 2 0-25-70-277-134-483-71-229-87-255-149-255-67 1-80 25-162 300-37 124-70 229-73 234-3 5-26-62-52-150-91-309-99-330-126-358-45-44-110-33-140 25-21 41-171 550-198 672l-7 28 77-3 77-3 66-247c36-137 69-248 72-248 3 0 34 97 70 216 67 228 85 269 122 284 26 11 74 5 94-12zm763-358 0-370-59 0c-100 0-91-36-91 376l0 364 75 0 75 0 0-370zm352 348c13-9 97-118 186-243l162-227 0 246 0 247 73-3 72-3 3-367 3-368-50 0c-87 0-84-2-258 242-128 179-178 247-183 248-3 0-4-110-2-245l3-246-73 3c-72 3-73 3-79 33-4 17-7 179-8 362-1 256 2 333 12 337 23 10 115 0 139-16zm1218-44 0-65-100 3-100 3 0-307 0-308-63 0c-36 0-68 5-75 12-9 9-12 90-12 305l0 292-102 3-101 3-4 48c-7 82-27 77 282 77l275 0 0-66zm624 44c8-32-4-98-18-98-6-1-76-2-156-3l-145-2 0-90 0-90 147-3 146-3 4-59 3-60-152 0-153 0 0-91 0-91 86 7c47 4 121 4 165 0l79-7 0-64 0-64-224 0c-191 0-227 2-240 16-14 13-16 60-16 363 0 191 3 351 7 354 3 4 109 7 234 7l227 0 6-22zm613-5c86-47 129-132 121-243-3-46-11-70-34-102-27-39-76-80-107-91-7-2 21-55 71-131 45-70 82-131 82-137 0-5-34-9-75-9-85 0-72-12-168 145l-62 100-58 3-58 3 3-126 3-126-75 3-75 3-3 355c-1 195 0 361 3 368 4 11 44 13 197 10 177-3 197-5 235-25zm-4329-1020c86-41 141-137 94-162-10-5-41-13-69-16-49-7-50-7-63 24-38 92-210 71-210-25 0-60 24-77 158-110 170-42 234-104 235-227 1-73-15-109-72-160-50-45-93-57-211-57-79 0-104 4-145 24-60 27-100 71-117 128-11 36-10 42 7 54 10 8 42 14 71 14 47 0 54-3 66-27 31-63 123-91 193-57 67 32 80 111 23 148-13 8-70 27-128 41-121 32-145 42-182 82-87 92-58 260 57 321 47 25 135 41 190 36 28-3 74-17 103-31zm1290 11c31-21 37-35 155-340 127-329 142-373 130-385-6-6-36-9-69-7l-58 3-27 63c-14 35-30 67-36 73-6 6-68 8-153 7l-144-3-30-72-30-73-52 0c-87 0-87-1 10 257 143 381 162 427 193 461 34 36 74 42 111 16zm3040 7c9-5 12-25 10-62l-3-54-157-3-158-3 0-94 0-95 150 0 150 0 0-60 0-60-150 0-150 0 0-87 0-88 141 3c194 5 189 7 189-73l0-65-223 0c-163 0-228 3-239 13-15 11-17 53-18 352-2 187-2 348-1 357 1 13 13 18 49 21 97 7 397 6 410-2zm-3623-25c114-54 166-170 130-293-35-119-127-173-297-173l-88 0 0-125 0-126-72 3-73 3-3 368-2 367 177 0c166 0 181-2 228-24zm1428 10c97-35 151-115 151-226 0-93-42-165-130-216-17-11-18-13-3-30 28-33 149-230 149-242 0-8-24-12-75-12l-76 0-37 61c-20 33-57 92-80 130l-44 69-54 0-54 0 0-130 0-130-75 0-75 0 0 370 0 370 183 0c126-1 194-5 220-14zm487-133 0-148 78 80c42 44 106 111 141 148l63 67 79 0c44 0 79-2 79-4 0-2-61-70-135-152-74-81-135-151-135-154 0-3 68-95 150-205 82-110 148-204 146-210-3-11-118-19-152-11-14 4-59 60-126 158-56 83-106 156-110 162-5 7-21-4-43-29l-34-40-1-128 0-128-72 3-73 3-3 368-2 367 75 0 75 0 0-147zm790-153 0-299 153-3 152-3 0-65 0-65-213-3c-135-1-220 1-232 8-19 10-20 23-20 370l0 360 80 0 80 0 0-300zm1575 272c34-18 59-42 79-76 52-83 46-213-12-281-13-16-78-68-100-81-2-1 35-61 82-133 48-72 86-134 86-136 0-9-145-5-160 5-8 5-46 62-85 127l-70 118-58 3-57 3 0-131 0-131-72 3-73 3-3 355c-1 195 0 361 3 367 3 10 52 13 197 13 191 0 193-1 243-28z"/>
        <path d="M6089 2283c-22-5-27-38-26-142 2-98-2-95 117-85 67 6 78 10 107 39 57 57 38 149-36 178-38 16-123 21-162 10z"/>
        <path d="M3207 1055l-46-135 99 0 99 0-28 78c-58 155-73 192-76 192-2 0-24-61-48-135z"/>
        <path d="M2470 1140l0-120 79 0c97 0 125 10 151 52 24 40 25 79 4 123-22 47-66 65-158 65l-76 0 0-120z"/>
        <path d="M3908 1254c-5-4-8-57-8-117l0-109 96 4c94 3 96 4 125 36 41 46 41 108 0 154-28 32-32 33-118 36-48 2-91 0-95-4z"/>
        <path d="M6717 1253c-3-5-5-56-6-115l-2-108 89 0c76 0 94 3 123 23 64 43 64 141 0 184-29 19-47 23-117 23-46 0-85-3-87-7z"/>
    </g>
</svg>